<svg width="158" height="158" viewBox="0 0 158 158" fill="none" xmlns="http://www.w3.org/2000/svg">
<g filter="url(#filter0_d_2_2149)">
<circle cx="79" cy="75" r="74.5" stroke="#0066FF"/>
<path d="M69.25 68.5V68H68.75H60.2071L64.2286 63.9786L75.4086 52.7986L78.5 49.7071L81.5914 52.7986L92.7714 63.9786L96.7929 68H88.25H87.75V68.5V90.75H69.25V68.5ZM78.8536 55.5397L78.5 55.1861L78.1464 55.5397L70.4147 63.2714L69.5611 64.125H70.7682H73.125V86.375V86.875H73.625H83.375H83.875V86.375V64.125H86.2317H87.4389L86.5853 63.2714L78.8536 55.5397ZM69.8175 97.1925C70.1808 96.8291 70.6736 96.625 71.1875 96.625H85.8125C86.3264 96.625 86.8192 96.8291 87.1825 97.1925C87.5459 97.5558 87.75 98.0486 87.75 98.5625C87.75 99.0764 87.5459 99.5692 87.1825 99.9325C86.8192 100.296 86.3264 100.5 85.8125 100.5H71.1875C70.6736 100.5 70.1808 100.296 69.8175 99.9325C69.4541 99.5692 69.25 99.0764 69.25 98.5625C69.25 98.0486 69.4541 97.5558 69.8175 97.1925Z" fill="#0066FF" stroke="white"/>
</g>
<defs>
<filter id="filter0_d_2_2149" x="0" y="0" width="158" height="158" filterUnits="userSpaceOnUse" color-interpolation-filters="sRGB">
<feFlood flood-opacity="0" result="BackgroundImageFix"/>
<feColorMatrix in="SourceAlpha" type="matrix" values="0 0 0 0 0 0 0 0 0 0 0 0 0 0 0 0 0 0 127 0" result="hardAlpha"/>
<feOffset dy="4"/>
<feGaussianBlur stdDeviation="2"/>
<feComposite in2="hardAlpha" operator="out"/>
<feColorMatrix type="matrix" values="0 0 0 0 0 0 0 0 0 0 0 0 0 0 0 0 0 0 0.25 0"/>
<feBlend mode="normal" in2="BackgroundImageFix" result="effect1_dropShadow_2_2149"/>
<feBlend mode="normal" in="SourceGraphic" in2="effect1_dropShadow_2_2149" result="shape"/>
</filter>
</defs>
</svg>
