<svg width="158" height="158" viewBox="0 0 158 158" fill="none" xmlns="http://www.w3.org/2000/svg">
<g filter="url(#filter0_d_2_2138)">
<circle cx="79" cy="75" r="74.5" stroke="#0066FF"/>
<mask id="path-2-inside-1_2_2138" fill="white">
<path d="M108.783 76.9643C108.333 72.0393 107.591 71.0802 107.311 70.7194C106.667 69.8858 105.637 69.341 104.547 68.7694C104.485 68.7377 104.432 68.6923 104.392 68.6371C104.351 68.5818 104.324 68.5181 104.313 68.451C104.302 68.3839 104.307 68.3151 104.328 68.2503C104.349 68.1854 104.385 68.1262 104.433 68.0772C104.635 67.8776 104.79 67.6377 104.888 67.3741C104.986 67.1105 105.024 66.8294 105 66.5501C104.953 66.0548 104.716 65.5948 104.338 65.2614C103.959 64.928 103.466 64.7454 102.956 64.75H101.005C100.922 64.7505 100.838 64.7558 100.755 64.7658C100.698 64.7418 100.639 64.7226 100.579 64.7086C99.4239 62.3283 97.8424 59.0694 94.5644 57.4789C89.7024 55.1219 80.7461 55 78.9959 55C77.2456 55 68.2893 55.1219 63.4336 57.4753C60.1556 59.0657 58.5741 62.3247 57.4189 64.7049L57.4089 64.7244C57.3513 64.7323 57.2947 64.7462 57.2402 64.7658C57.1572 64.7558 57.0737 64.7505 56.9901 64.75H55.0361C54.5259 64.7454 54.0325 64.928 53.6539 65.2614C53.2753 65.5948 53.039 66.0548 52.992 66.5501C52.9698 66.8288 53.0096 67.1088 53.1086 67.3711C53.2077 67.6334 53.3636 67.8717 53.5659 68.0699C53.6142 68.1188 53.6503 68.1781 53.6712 68.243C53.692 68.3078 53.6972 68.3765 53.6861 68.4437C53.6751 68.5108 53.6482 68.5745 53.6076 68.6298C53.567 68.685 53.5137 68.7303 53.4521 68.7621C52.3619 69.3374 51.3268 69.8822 50.6879 70.7121C50.4079 71.0778 49.6678 72.032 49.2165 76.957C48.9664 79.7284 48.9289 82.5974 49.1252 84.445C49.5365 88.2841 50.3079 90.6046 50.3404 90.7008C50.4588 91.0512 50.6766 91.3617 50.9687 91.5962C51.2608 91.8307 51.6152 91.9796 51.9906 92.0256V92.05C51.9906 92.5672 52.2014 93.0632 52.5765 93.4289C52.9516 93.7946 53.4604 94 53.9909 94H60.992C61.5225 94 62.0313 93.7946 62.4064 93.4289C62.7815 93.0632 62.9923 92.5672 62.9923 92.05C64.0687 92.05 64.8175 91.8623 65.6114 91.6624C66.7575 91.3614 67.9291 91.1611 69.1119 91.064C72.9262 90.7094 76.7193 90.5875 78.9959 90.5875C81.2262 90.5875 85.1868 90.7094 89.0073 91.064C90.1948 91.1613 91.371 91.3624 92.5216 91.6649C93.2817 91.855 94.0031 92.0305 95.002 92.0488C95.002 92.566 95.2127 93.0619 95.5878 93.4276C95.963 93.7933 96.4717 93.9988 97.0023 93.9988H104.003C104.534 93.9988 105.043 93.7933 105.418 93.4276C105.793 93.0619 106.004 92.566 106.004 92.0488V92.0342C106.38 91.989 106.735 91.8405 107.028 91.6059C107.321 91.3714 107.54 91.0604 107.659 90.7094C107.691 90.6131 108.463 88.2926 108.874 84.4535C109.07 82.6047 109.035 79.7406 108.783 76.9643ZM61.0345 66.3722C62.0346 64.3003 63.1785 61.9554 65.2151 60.967C68.158 59.5386 74.2577 58.8951 78.9959 58.8951C83.7341 58.8951 89.8337 59.5338 92.7766 60.967C94.8132 61.9554 95.9521 64.3015 96.9572 66.3722L97.0823 66.6366C97.1554 66.7872 97.1877 66.9535 97.1761 67.1197C97.1646 67.2859 97.1095 67.4464 97.0163 67.586C96.923 67.7256 96.7946 67.8395 96.6433 67.917C96.4921 67.9944 96.3229 68.0328 96.1521 68.0284C91.9978 67.9187 83.2465 67.5677 78.9959 67.5677C74.7452 67.5677 65.9939 67.9273 61.8333 68.037C61.6625 68.0413 61.4934 68.0029 61.3421 67.9255C61.1909 67.848 61.0625 67.7341 60.9692 67.5945C60.8759 67.455 60.8209 67.2944 60.8093 67.1282C60.7978 66.962 60.8301 66.7957 60.9032 66.6452C60.947 66.555 60.9932 66.4636 61.0345 66.3722ZM62.5259 76.0771C60.3754 76.3294 58.2111 76.4539 56.045 76.45C54.7198 76.45 53.3533 76.0844 53.0995 74.9339C52.9258 74.16 52.9445 73.7249 53.0383 73.2873C53.117 72.9156 53.2421 72.6451 53.8672 72.55C55.4924 72.3063 56.4013 72.6122 59.0617 73.3763C60.8257 73.8821 62.0984 74.5561 62.8235 75.0899C63.1873 75.3531 62.9935 76.0405 62.5259 76.0771ZM90.2025 86.0708C88.5573 86.2536 85.2668 86.1866 79.0334 86.1866C72.7999 86.1866 69.5107 86.2536 67.8655 86.0708C66.1677 85.8868 64.0036 84.3219 65.4814 82.9277C66.4653 82.0087 68.7606 81.3213 71.8173 80.935C74.874 80.5487 76.1679 80.35 79.0209 80.35C81.8738 80.35 83.0365 80.4719 86.2244 80.9362C89.4124 81.4006 91.8215 82.0965 92.5604 82.9289C93.908 84.4206 91.899 85.877 90.2025 86.0781V86.0708ZM104.892 74.9327C104.642 76.088 103.267 76.4488 101.947 76.4488C99.7392 76.4493 97.5335 76.3248 95.3408 76.0758C94.9582 76.0405 94.7807 75.386 95.1682 75.0887C95.8821 74.5414 97.1685 73.8809 98.93 73.3751C101.59 72.6109 103.124 72.305 104.442 72.5598C104.763 72.6219 104.933 72.9583 104.953 73.1691C105.042 73.7562 105.021 74.354 104.892 74.9339V74.9327Z"/>
</mask>
<path d="M108.783 76.9643C108.333 72.0393 107.591 71.0802 107.311 70.7194C106.667 69.8858 105.637 69.341 104.547 68.7694C104.485 68.7377 104.432 68.6923 104.392 68.6371C104.351 68.5818 104.324 68.5181 104.313 68.451C104.302 68.3839 104.307 68.3151 104.328 68.2503C104.349 68.1854 104.385 68.1262 104.433 68.0772C104.635 67.8776 104.79 67.6377 104.888 67.3741C104.986 67.1105 105.024 66.8294 105 66.5501C104.953 66.0548 104.716 65.5948 104.338 65.2614C103.959 64.928 103.466 64.7454 102.956 64.75H101.005C100.922 64.7505 100.838 64.7558 100.755 64.7658C100.698 64.7418 100.639 64.7226 100.579 64.7086C99.4239 62.3283 97.8424 59.0694 94.5644 57.4789C89.7024 55.1219 80.7461 55 78.9959 55C77.2456 55 68.2893 55.1219 63.4336 57.4753C60.1556 59.0657 58.5741 62.3247 57.4189 64.7049L57.4089 64.7244C57.3513 64.7323 57.2947 64.7462 57.2402 64.7658C57.1572 64.7558 57.0737 64.7505 56.9901 64.75H55.0361C54.5259 64.7454 54.0325 64.928 53.6539 65.2614C53.2753 65.5948 53.039 66.0548 52.992 66.5501C52.9698 66.8288 53.0096 67.1088 53.1086 67.3711C53.2077 67.6334 53.3636 67.8717 53.5659 68.0699C53.6142 68.1188 53.6503 68.1781 53.6712 68.243C53.692 68.3078 53.6972 68.3765 53.6861 68.4437C53.6751 68.5108 53.6482 68.5745 53.6076 68.6298C53.567 68.685 53.5137 68.7303 53.4521 68.7621C52.3619 69.3374 51.3268 69.8822 50.6879 70.7121C50.4079 71.0778 49.6678 72.032 49.2165 76.957C48.9664 79.7284 48.9289 82.5974 49.1252 84.445C49.5365 88.2841 50.3079 90.6046 50.3404 90.7008C50.4588 91.0512 50.6766 91.3617 50.9687 91.5962C51.2608 91.8307 51.6152 91.9796 51.9906 92.0256V92.05C51.9906 92.5672 52.2014 93.0632 52.5765 93.4289C52.9516 93.7946 53.4604 94 53.9909 94H60.992C61.5225 94 62.0313 93.7946 62.4064 93.4289C62.7815 93.0632 62.9923 92.5672 62.9923 92.05C64.0687 92.05 64.8175 91.8623 65.6114 91.6624C66.7575 91.3614 67.9291 91.1611 69.1119 91.064C72.9262 90.7094 76.7193 90.5875 78.9959 90.5875C81.2262 90.5875 85.1868 90.7094 89.0073 91.064C90.1948 91.1613 91.371 91.3624 92.5216 91.6649C93.2817 91.855 94.0031 92.0305 95.002 92.0488C95.002 92.566 95.2127 93.0619 95.5878 93.4276C95.963 93.7933 96.4717 93.9988 97.0023 93.9988H104.003C104.534 93.9988 105.043 93.7933 105.418 93.4276C105.793 93.0619 106.004 92.566 106.004 92.0488V92.0342C106.38 91.989 106.735 91.8405 107.028 91.6059C107.321 91.3714 107.54 91.0604 107.659 90.7094C107.691 90.6131 108.463 88.2926 108.874 84.4535C109.07 82.6047 109.035 79.7406 108.783 76.9643ZM61.0345 66.3722C62.0346 64.3003 63.1785 61.9554 65.2151 60.967C68.158 59.5386 74.2577 58.8951 78.9959 58.8951C83.7341 58.8951 89.8337 59.5338 92.7766 60.967C94.8132 61.9554 95.9521 64.3015 96.9572 66.3722L97.0823 66.6366C97.1554 66.7872 97.1877 66.9535 97.1761 67.1197C97.1646 67.2859 97.1095 67.4464 97.0163 67.586C96.923 67.7256 96.7946 67.8395 96.6433 67.917C96.4921 67.9944 96.3229 68.0328 96.1521 68.0284C91.9978 67.9187 83.2465 67.5677 78.9959 67.5677C74.7452 67.5677 65.9939 67.9273 61.8333 68.037C61.6625 68.0413 61.4934 68.0029 61.3421 67.9255C61.1909 67.848 61.0625 67.7341 60.9692 67.5945C60.8759 67.455 60.8209 67.2944 60.8093 67.1282C60.7978 66.962 60.8301 66.7957 60.9032 66.6452C60.947 66.555 60.9932 66.4636 61.0345 66.3722ZM62.5259 76.0771C60.3754 76.3294 58.2111 76.4539 56.045 76.45C54.7198 76.45 53.3533 76.0844 53.0995 74.9339C52.9258 74.16 52.9445 73.7249 53.0383 73.2873C53.117 72.9156 53.2421 72.6451 53.8672 72.55C55.4924 72.3063 56.4013 72.6122 59.0617 73.3763C60.8257 73.8821 62.0984 74.5561 62.8235 75.0899C63.1873 75.3531 62.9935 76.0405 62.5259 76.0771ZM90.2025 86.0708C88.5573 86.2536 85.2668 86.1866 79.0334 86.1866C72.7999 86.1866 69.5107 86.2536 67.8655 86.0708C66.1677 85.8868 64.0036 84.3219 65.4814 82.9277C66.4653 82.0087 68.7606 81.3213 71.8173 80.935C74.874 80.5487 76.1679 80.35 79.0209 80.35C81.8738 80.35 83.0365 80.4719 86.2244 80.9362C89.4124 81.4006 91.8215 82.0965 92.5604 82.9289C93.908 84.4206 91.899 85.877 90.2025 86.0781V86.0708ZM104.892 74.9327C104.642 76.088 103.267 76.4488 101.947 76.4488C99.7392 76.4493 97.5335 76.3248 95.3408 76.0758C94.9582 76.0405 94.7807 75.386 95.1682 75.0887C95.8821 74.5414 97.1685 73.8809 98.93 73.3751C101.59 72.6109 103.124 72.305 104.442 72.5598C104.763 72.6219 104.933 72.9583 104.953 73.1691C105.042 73.7562 105.021 74.354 104.892 74.9339V74.9327Z" fill="#0066FF" stroke="#0066FF" stroke-width="2" mask="url(#path-2-inside-1_2_2138)"/>
</g>
<defs>
<filter id="filter0_d_2_2138" x="0" y="0" width="158" height="158" filterUnits="userSpaceOnUse" color-interpolation-filters="sRGB">
<feFlood flood-opacity="0" result="BackgroundImageFix"/>
<feColorMatrix in="SourceAlpha" type="matrix" values="0 0 0 0 0 0 0 0 0 0 0 0 0 0 0 0 0 0 127 0" result="hardAlpha"/>
<feOffset dy="4"/>
<feGaussianBlur stdDeviation="2"/>
<feComposite in2="hardAlpha" operator="out"/>
<feColorMatrix type="matrix" values="0 0 0 0 0 0 0 0 0 0 0 0 0 0 0 0 0 0 0.25 0"/>
<feBlend mode="normal" in2="BackgroundImageFix" result="effect1_dropShadow_2_2138"/>
<feBlend mode="normal" in="SourceGraphic" in2="effect1_dropShadow_2_2138" result="shape"/>
</filter>
</defs>
</svg>
